Coordinates
version=1
nRows=14
nColumns=63
inDegrees=yes

Units are S.I. units (second, meters, Newtons, ...)
If the header above contains a line with 'inDegrees', this indicates whether rotational values are in degrees (yes) or radians (no).

endheader
time	pelvis_tilt	pelvis_list	pelvis_rotation	pelvis_tx	pelvis_ty	pelvis_tz	hip_flexion_r	hip_adduction_r	hip_rotation_r	knee_angle_r	knee_angle_r_beta	ankle_angle_r	subtalar_angle_r	mtp_angle_r	hip_flexion_l	hip_adduction_l	hip_rotation_l	knee_angle_l	knee_angle_l_beta	ankle_angle_l	subtalar_angle_l	mtp_angle_l	L5_S1_Flex_Ext	L5_S1_Lat_Bending	L5_S1_axial_rotation	L4_L5_Flex_Ext	L4_L5_Lat_Bending	L4_L5_axial_rotation	L3_L4_Flex_Ext	L3_L4_Lat_Bending	L3_L4_axial_rotation	L2_L3_Flex_Ext	L2_L3_Lat_Bending	L2_L3_axial_rotation	L1_L2_Flex_Ext	L1_L2_Lat_Bending	L1_L2_axial_rotation	L1_T12_Flex_Ext	L1_T12_Lat_Bending	L1_T12_axial_rotation	Abs_r3	Abs_r2	Abs_r1	Abs_t1	Abs_t2	neck_flexion	neck_bending	neck_rotation	arm_flex_r	arm_add_r	arm_rot_r	elbow_flex_r	pro_sup_r	wrist_flex_r	wrist_dev_r	arm_flex_l	arm_add_l	arm_rot_l	elbow_flex_l	pro_sup_l	wrist_flex_l	wrist_dev_l
0.816667	-2.940706	-7.989799	80.709599	0.175640	0.944270	0.473932	13.413487	0.962227	6.431323	18.548199	0.323727	34.877213	-0.084849	0.000000	12.708521	0.461193	-7.774285	18.171238	0.317148	33.459932	-9.409927	0.000000	0.162071	0.014916	0.503627	0.300983	0.019839	0.535104	0.266267	0.036267	0.535104	0.185231	0.036267	0.440674	0.150499	0.030417	0.409197	0.092608	0.023105	0.377720	1.157659	0.168736	2.801023	0.000000	0.000000	27.494911	7.223466	3.313046	-0.770185	-17.853664	18.427524	58.886533	88.315730	-5.950534	6.698381	-1.140741	-15.674699	104.694491	10.728950	47.516218	-8.179242	-9.639340
0.833333	-3.174519	-9.515198	80.520986	0.175686	0.939126	0.475970	15.832422	1.182080	7.093891	19.837228	0.346225	35.697828	-1.047018	0.000000	15.097080	0.327556	-7.622176	19.458188	0.339609	34.344564	-9.870966	0.000000	0.225351	-0.003118	0.377609	0.418500	-0.004147	0.401209	0.370230	-0.007581	0.401209	0.257554	-0.007581	0.330408	0.209261	-0.006358	0.306807	0.128766	-0.004830	0.283207	1.609662	-0.035271	2.100147	0.000000	0.000000	27.729568	7.556614	3.610007	-1.112038	-18.209733	16.092136	58.625237	88.052451	-5.774821	6.710627	-2.275580	-17.141815	111.793367	7.851294	41.319895	-6.845845	-10.442850
0.850000	-3.408913	-11.221286	80.436472	0.175670	0.932795	0.478369	18.537000	1.429205	7.697199	21.341080	0.372472	36.667698	-2.037020	0.000000	17.837248	0.163376	-7.387780	21.026916	0.366989	35.412038	-10.223736	0.000000	0.291957	-0.023208	0.274429	0.542193	-0.030866	0.291580	0.479656	-0.056427	0.291580	0.333677	-0.056427	0.240125	0.271111	-0.047325	0.222973	0.166824	-0.035949	0.205821	2.085417	-0.262531	1.526289	0.000000	0.000000	27.949537	7.869102	3.722820	-1.203456	-18.622482	13.615983	58.609318	87.822863	-5.707485	6.881880	-3.103049	-19.029854	116.942318	5.732371	37.092686	-5.512867	-11.252334
0.866667	-3.618266	-13.105191	80.461240	0.175557	0.925084	0.481005	21.534473	1.703692	8.181471	23.101963	0.403205	37.820959	-2.968062	0.000000	20.939650	-0.044283	-7.090499	22.936831	0.400323	36.675408	-10.428699	0.000000	0.360885	-0.043020	0.211530	0.670200	-0.057216	0.224751	0.592898	-0.104598	0.224751	0.412456	-0.104598	0.185089	0.335118	-0.087726	0.171868	0.206210	-0.066638	0.158647	2.577767	-0.486649	1.176466	0.000000	0.000000	28.146946	8.039188	3.501505	-1.253063	-19.075575	10.850115	58.996868	87.658582	-5.868998	7.133776	-3.397634	-21.106945	122.147850	4.384329	33.272889	-4.316955	-12.051166
0.883333	-3.770271	-15.172206	80.595037	0.175330	0.915795	0.483829	24.844738	2.051404	8.550946	25.161039	0.439143	39.153182	-3.869971	0.000000	24.421528	-0.325322	-6.720483	25.240520	0.440530	38.141098	-10.464037	0.000000	0.432212	-0.058283	0.179606	0.802661	-0.077516	0.190831	0.710081	-0.141709	0.190831	0.493975	-0.141709	0.157155	0.401352	-0.118851	0.145930	0.246966	-0.090280	0.134704	3.087248	-0.659310	0.998914	0.000000	0.000000	28.304307	8.065749	3.031357	-1.306541	-19.591602	7.861206	59.838870	87.555829	-6.252156	7.269657	-3.369972	-23.391051	127.078101	3.726813	30.046321	-3.302207	-12.816648
0.900000	-3.863874	-17.407882	80.857738	0.174871	0.904757	0.486891	28.489244	2.441314	8.876719	27.571344	0.481211	40.666029	-4.820963	0.000000	28.284701	-0.631794	-6.194923	27.963995	0.488064	39.768844	-10.452271	0.000000	0.501340	-0.067359	0.175404	0.931039	-0.089588	0.186366	0.823651	-0.163777	0.186366	0.572981	-0.163777	0.153478	0.465544	-0.137359	0.142515	0.286466	-0.104339	0.131553	3.581021	-0.761981	0.975543	0.000000	0.000000	28.422024	7.876339	2.323948	-1.483863	-20.186979	4.575092	61.258528	87.515362	-6.927610	7.355684	-2.968556	-25.896264	131.602210	3.817459	27.242179	-2.785245	-13.450129
0.916667	-3.994256	-19.801590	81.163405	0.174281	0.891823	0.490410	32.519285	2.821911	9.135545	30.387152	0.530356	42.383453	-5.623004	0.000000	32.532785	-0.935187	-5.684674	31.099394	0.542787	41.560659	-10.299290	0.000000	0.563679	-0.079582	0.191633	1.046808	-0.105844	0.203610	0.926068	-0.193495	0.203610	0.644229	-0.193495	0.167679	0.523432	-0.162283	0.155702	0.322086	-0.123272	0.143725	4.026302	-0.900243	1.065804	0.000000	0.000000	28.495221	7.482160	1.422019	-1.809577	-20.811559	0.995663	63.316981	87.531073	-7.816271	7.401733	-2.142603	-28.721750	134.876274	4.623017	25.282383	-2.463175	-13.765307
0.933333	-4.307040	-22.324179	81.407565	0.173683	0.876891	0.494713	36.961024	3.187193	9.508511	33.627943	0.586918	44.260096	-6.358802	0.000000	37.165632	-1.223405	-5.303902	34.630554	0.604417	43.472712	-10.033695	0.000000	0.613150	-0.107893	0.218399	1.138681	-0.143498	0.232049	1.007344	-0.262332	0.232049	0.700769	-0.262332	0.191099	0.569371	-0.220016	0.177449	0.350354	-0.167127	0.163799	4.379669	-1.220510	1.214668	0.000000	0.000000	28.534538	6.937139	0.355017	-2.314239	-21.457773	-2.944987	66.065466	87.590847	-8.805478	7.585605	0.127098	-31.972601	139.098775	5.912439	22.885554	-2.691572	-13.859797
0.950000	-4.988690	-24.942451	81.409146	0.173182	0.859861	0.500149	41.834782	3.562566	10.024720	37.302753	0.651056	46.267779	-6.920822	0.000000	42.181298	-1.532357	-5.164905	38.545253	0.672742	45.469814	-9.683567	0.000000	0.643354	-0.166287	0.213171	1.194773	-0.221162	0.226494	1.056966	-0.404310	0.226494	0.735289	-0.404310	0.186525	0.597419	-0.339092	0.173201	0.367612	-0.257578	0.159878	4.595413	-1.881071	1.185593	0.000000	0.000000	28.548021	6.455233	-0.663092	-2.731410	-22.069693	-6.968347	69.382250	87.686702	-9.800926	8.007146	2.502148	-35.870529	141.449239	7.320313	21.598537	-3.188210	-13.791376
0.966667	-6.421825	-27.680518	80.818181	0.172968	0.840630	0.507085	47.179594	4.025460	10.801753	41.425087	0.723004	48.352608	-7.288403	0.000000	47.586606	-1.958660	-5.386584	42.835498	0.747620	47.492765	-9.315880	0.000000	0.647903	-0.279405	0.162445	1.203220	-0.371609	0.172598	1.064439	-0.679346	0.172598	0.740488	-0.679346	0.142140	0.601642	-0.569763	0.131987	0.370212	-0.432799	0.121834	4.627904	-3.160687	0.903472	0.000000	0.000000	28.545917	6.201579	-1.632651	-3.140055	-22.626201	-11.179674	73.227147	87.806172	-10.752876	8.683809	9.620305	-40.713836	149.624884	8.080036	19.072910	-3.333305	-13.812195
0.983333	-8.112179	-30.614596	79.952221	0.172751	0.819195	0.515768	52.961742	4.553919	11.514251	45.865683	0.800507	50.448616	-7.467766	0.000000	53.449073	-2.453789	-5.629067	47.496327	0.828967	49.453499	-8.967803	0.000000	0.621078	-0.401728	0.069581	1.153403	-0.534298	0.073930	1.020369	-0.976761	0.073930	0.709830	-0.976761	0.060884	0.576733	-0.819204	0.056535	0.354884	-0.622277	0.052186	4.436296	-4.544427	0.386990	0.000000	0.000000	28.530355	6.091342	-2.296192	-3.346733	-23.398913	-15.464232	77.424374	87.942236	-11.636811	9.593565	13.880441	-46.097905	150.859372	8.969017	20.340758	-3.748537	-13.317093
1.000000	-9.219849	-33.681046	79.453031	0.172083	0.795943	0.526016	59.057641	5.009092	11.724051	50.421609	0.880023	52.524930	-7.417832	0.000000	59.747993	-2.829432	-5.489739	52.424319	0.914977	51.262962	-8.644230	0.000000	0.566373	-0.465324	-0.045163	1.051812	-0.618881	-0.047986	0.930495	-1.131390	-0.047986	0.647308	-1.131390	-0.039518	0.525934	-0.948889	-0.036695	0.323626	-0.720787	-0.033873	4.045547	-5.263842	-0.251185	0.000000	0.000000	28.504661	5.877761	-2.310775	-2.789024	-24.685157	-19.277014	81.746285	88.096441	-12.493584	10.663868	16.595976	-51.163165	151.592664	9.341038	20.211312	-4.103517	-12.538653
1.016667	-9.347244	-36.736584	79.672930	0.170792	0.771395	0.537666	65.305758	5.268417	11.231199	54.938043	0.958850	54.544627	-7.148601	0.000000	66.364003	-2.943110	-4.779925	57.485377	1.003309	52.847579	-8.339690	0.000000	0.486785	-0.438903	-0.156358	0.904008	-0.583741	-0.166131	0.799739	-1.067149	-0.166131	0.556346	-1.067149	-0.136814	0.452028	-0.895011	-0.127041	0.278149	-0.679861	-0.117269	3.477054	-4.964958	-0.869619	0.000000	0.000000	28.467959	5.442390	-1.578132	-1.009446	-26.569897	-22.145867	85.982933	88.261313	-13.419762	11.812763	17.938923	-56.046882	148.666798	9.586292	21.775809	-4.742068	-11.264389
1.033333	-8.350620	-39.757281	80.767473	0.168959	0.745968	0.550636	71.657949	5.265865	10.040932	59.305082	1.035069	56.453314	-6.655957	0.000000	73.238824	-2.748251	-3.510983	62.535298	1.091447	54.152734	-8.040784	0.000000	0.392625	-0.321726	-0.266523	0.729145	-0.427895	-0.283180	0.645044	-0.782243	-0.283180	0.448732	-0.782243	-0.233207	0.364592	-0.656063	-0.216550	0.224346	-0.498353	-0.199892	2.804484	-3.639424	-1.482319	0.000000	0.000000	28.425326	4.809767	-0.048395	2.073089	-28.823430	-23.926535	89.934158	88.457354	-14.340397	12.969939	16.236222	-60.970361	141.818684	9.888064	23.243492	-6.311473	-9.815672
